BEDROOM.DVD491
      Format : AVI
      Format/Info : Audio Video Interleave
      File size : 492 MiB
      Duration : 2h 5mn
      Overall bit rate : 550 Kbps
      Writing application : Lavf52.94.0
   Video #0
      ID : 0
      Format : AVC
      Format/Info : Advanced Video Codec
      Format profile : Main@L3.0
      Format settings, CABAC : Yes
      Format settings, ReFrames : 2 frames
      Codec ID : H264
      Duration : 2h 5mn
      Bit rate : 442 Kbps
      Nominal bit rate : 446 Kbps
      Width : 720 pixels
      Height : 404 pixels
      Display aspect ratio : 16:9
      Frame rate mode : Variable
      Frame rate : 29.970 fps
      Resolution : 24 bits
      Colorimetry : 4:2:0
      Scan type : Progressive
      Bits/(Pixel*Frame) : 0.051
      Stream size : 396 MiB (80%)
      Writing library : x264 core 112 r1834 a51816a
      Encoding settings : cabac=1 / ref=1 / deblock=1:0:0 / analyse=0x1:0 / me=dia / subme=2 / psy=1 / psy_rd=0.00:0.00 / mixed_ref=0 / me_range=16 / chroma_me=1 / trellis=0 / 8x8dct=0 / cqm=0 / deadzone=21,11 / fast_pskip=1 / chroma_qp_offset=0 / threads=2 / sliced_threads=0 / nr=0 / decimate=1 / interlaced=0 / constrained_intra=0 / bframes=3 / b_pyramid=0 / b_adapt=1 / b_bias=0 / direct=3 / weightb=0 / open_gop=0 / weightp=2 / keyint=250 / keyint_min=25 / scenecut=40 / intra_refresh=0 / rc_lookahead=40 / rc=abr / mbtree=1 / bitrate=446 / ratetol=1.0 / qcomp=0.60 / qpmin=10 / qpmax=51 / qpstep=4 / ip_ratio=1.41 / aq=1:1.00
   Audio #1
      ID : 1
      Format : AC-3
      Format/Info : Audio Coding 3
      Codec ID : 2000
      Duration : 2h 5mn
      Bit rate mode : Constant
      Bit rate : 96.0 Kbps
      Channel(s) : 2 channels
      Channel positions : L R
      Sampling rate : 44.1 KHz
      Resolution : 16 bits
      Stream size : 85.9 MiB (17%)
      Alignment : Aligned on interleaves
      Interleave, duration : 35 ms (1.04 video frame)